<?xml version="1.0" encoding="UTF-8" standalone="no"?>
<!DOCTYPE svg PUBLIC "-//W3C//DTD SVG 1.1//EN"
 "http://www.w3.org/Graphics/SVG/1.1/DTD/svg11.dtd">
<!-- Generated by graphviz version 2.40.1 (20161225.0304)
 -->
<!-- Title: %3 Pages: 1 -->
<svg width="544pt" height="548pt"
 viewBox="0.00 0.00 543.89 548.00" xmlns="http://www.w3.org/2000/svg" xmlns:xlink="http://www.w3.org/1999/xlink">
<g id="graph0" class="graph" transform="scale(1 1) rotate(0) translate(4 544)">
<title>%3</title>
<polygon fill="#ffffff" stroke="transparent" points="-4,4 -4,-544 539.8939,-544 539.8939,4 -4,4"/>
<!-- 0x559011efa260 -->
<g id="node1" class="node">
<title>0x559011efa260</title>
<ellipse fill="#ffffff" stroke="#000000" cx="152.4469" cy="-522" rx="27" ry="18"/>
<text text-anchor="middle" x="152.4469" y="-518.3" font-family="Times,serif" font-size="14.00" fill="#000000">15</text>
</g>
<!-- 0x559011efa2a0 -->
<g id="node2" class="node">
<title>0x559011efa2a0</title>
<ellipse fill="#ff0000" stroke="#000000" cx="113.4469" cy="-450" rx="27" ry="18"/>
<text text-anchor="middle" x="113.4469" y="-446.3" font-family="Times,serif" font-size="14.00" fill="#000000">4</text>
</g>
<!-- 0x559011efa260&#45;&gt;0x559011efa2a0 -->
<g id="edge1" class="edge">
<title>0x559011efa260&#45;&gt;0x559011efa2a0</title>
<path fill="none" stroke="#000000" stroke-width="4" d="M143.2045,-504.937C138.4932,-496.2393 132.6652,-485.4799 127.4191,-475.7948"/>
<polygon fill="#000000" stroke="#000000" stroke-width="4" points="130.4635,-474.0664 122.6231,-466.9405 124.3084,-477.4005 130.4635,-474.0664"/>
</g>
<!-- 0x559011efa280 -->
<g id="node7" class="node">
<title>0x559011efa280</title>
<ellipse fill="#c0c0c0" stroke="#000000" cx="192.4469" cy="-450" rx="27" ry="18"/>
<text text-anchor="middle" x="192.4469" y="-446.3" font-family="Times,serif" font-size="14.00" fill="#000000">16</text>
</g>
<!-- 0x559011efa260&#45;&gt;0x559011efa280 -->
<g id="edge6" class="edge">
<title>0x559011efa260&#45;&gt;0x559011efa280</title>
<path fill="none" stroke="#000000" stroke-width="4" d="M161.9264,-504.937C166.7584,-496.2393 172.7359,-485.4799 178.1165,-475.7948"/>
<polygon fill="#000000" stroke="#000000" stroke-width="4" points="181.2386,-477.3819 183.0355,-466.9405 175.1195,-473.9823 181.2386,-477.3819"/>
</g>
<!-- 0 -->
<g id="node3" class="node">
<title>0</title>
<ellipse fill="#ff0000" stroke="#000000" cx="34.4469" cy="-378" rx="34.394" ry="18"/>
<text text-anchor="middle" x="34.4469" y="-374.3" font-family="Times,serif" font-size="14.00" fill="#000000">NULL</text>
</g>
<!-- 0x559011efa2a0&#45;&gt;0 -->
<g id="edge2" class="edge">
<title>0x559011efa2a0&#45;&gt;0</title>
<path fill="none" stroke="#000000" d="M97.4601,-435.4297C86.4831,-425.4253 71.697,-411.9494 59.2066,-400.5657"/>
<polygon fill="#000000" stroke="#000000" points="61.5294,-397.9472 51.7808,-393.7979 56.8141,-403.1208 61.5294,-397.9472"/>
</g>
<!-- 0x559011efa340 -->
<g id="node4" class="node">
<title>0x559011efa340</title>
<ellipse fill="#c0c0c0" stroke="#000000" cx="113.4469" cy="-378" rx="27" ry="18"/>
<text text-anchor="middle" x="113.4469" y="-374.3" font-family="Times,serif" font-size="14.00" fill="#000000">6</text>
</g>
<!-- 0x559011efa2a0&#45;&gt;0x559011efa340 -->
<g id="edge3" class="edge">
<title>0x559011efa2a0&#45;&gt;0x559011efa340</title>
<path fill="none" stroke="#000000" stroke-width="4" d="M113.4469,-431.8314C113.4469,-424.131 113.4469,-414.9743 113.4469,-406.4166"/>
<polygon fill="#000000" stroke="#000000" stroke-width="4" points="116.947,-406.4132 113.4469,-396.4133 109.947,-406.4133 116.947,-406.4132"/>
</g>
<!-- 1 -->
<g id="node5" class="node">
<title>1</title>
<ellipse fill="#ff0000" stroke="#000000" cx="44.4469" cy="-306" rx="34.394" ry="18"/>
<text text-anchor="middle" x="44.4469" y="-302.3" font-family="Times,serif" font-size="14.00" fill="#000000">NULL</text>
</g>
<!-- 0x559011efa340&#45;&gt;1 -->
<g id="edge4" class="edge">
<title>0x559011efa340&#45;&gt;1</title>
<path fill="none" stroke="#000000" d="M98.8138,-362.7307C89.557,-353.0713 77.4054,-340.3915 66.9387,-329.4696"/>
<polygon fill="#000000" stroke="#000000" points="69.464,-327.0462 60.0179,-322.248 64.41,-331.8896 69.464,-327.0462"/>
</g>
<!-- 2 -->
<g id="node6" class="node">
<title>2</title>
<ellipse fill="#c0c0c0" stroke="#000000" cx="131.4469" cy="-306" rx="34.394" ry="18"/>
<text text-anchor="middle" x="131.4469" y="-302.3" font-family="Times,serif" font-size="14.00" fill="#000000">NULL</text>
</g>
<!-- 0x559011efa340&#45;&gt;2 -->
<g id="edge5" class="edge">
<title>0x559011efa340&#45;&gt;2</title>
<path fill="none" stroke="#000000" d="M117.8964,-360.2022C119.8718,-352.3005 122.2442,-342.811 124.448,-333.9959"/>
<polygon fill="#000000" stroke="#000000" points="127.8937,-334.6434 126.9237,-324.0931 121.1027,-332.9456 127.8937,-334.6434"/>
</g>
<!-- 3 -->
<g id="node8" class="node">
<title>3</title>
<ellipse fill="#ff0000" stroke="#000000" cx="192.4469" cy="-378" rx="34.394" ry="18"/>
<text text-anchor="middle" x="192.4469" y="-374.3" font-family="Times,serif" font-size="14.00" fill="#000000">NULL</text>
</g>
<!-- 0x559011efa280&#45;&gt;3 -->
<g id="edge7" class="edge">
<title>0x559011efa280&#45;&gt;3</title>
<path fill="none" stroke="#000000" d="M192.4469,-431.8314C192.4469,-424.131 192.4469,-414.9743 192.4469,-406.4166"/>
<polygon fill="#000000" stroke="#000000" points="195.947,-406.4132 192.4469,-396.4133 188.947,-406.4133 195.947,-406.4132"/>
</g>
<!-- 0x559011efa2c0 -->
<g id="node9" class="node">
<title>0x559011efa2c0</title>
<ellipse fill="#c0c0c0" stroke="#000000" cx="271.4469" cy="-378" rx="27" ry="18"/>
<text text-anchor="middle" x="271.4469" y="-374.3" font-family="Times,serif" font-size="14.00" fill="#000000">18</text>
</g>
<!-- 0x559011efa280&#45;&gt;0x559011efa2c0 -->
<g id="edge8" class="edge">
<title>0x559011efa280&#45;&gt;0x559011efa2c0</title>
<path fill="none" stroke="#000000" stroke-width="4" d="M208.4338,-435.4297C219.7842,-425.0851 235.2072,-411.0286 247.9536,-399.4116"/>
<polygon fill="#000000" stroke="#000000" stroke-width="4" points="250.4506,-401.8715 255.4839,-392.5486 245.7353,-396.6978 250.4506,-401.8715"/>
</g>
<!-- 4 -->
<g id="node10" class="node">
<title>4</title>
<ellipse fill="#ff0000" stroke="#000000" cx="253.4469" cy="-306" rx="34.394" ry="18"/>
<text text-anchor="middle" x="253.4469" y="-302.3" font-family="Times,serif" font-size="14.00" fill="#000000">NULL</text>
</g>
<!-- 0x559011efa2c0&#45;&gt;4 -->
<g id="edge9" class="edge">
<title>0x559011efa2c0&#45;&gt;4</title>
<path fill="none" stroke="#000000" d="M266.9975,-360.2022C265.0221,-352.3005 262.6497,-342.811 260.4459,-333.9959"/>
<polygon fill="#000000" stroke="#000000" points="263.7912,-332.9456 257.9702,-324.0931 257.0002,-334.6434 263.7912,-332.9456"/>
</g>
<!-- 0x559011efa2e0 -->
<g id="node11" class="node">
<title>0x559011efa2e0</title>
<ellipse fill="#c0c0c0" stroke="#000000" cx="332.4469" cy="-306" rx="27" ry="18"/>
<text text-anchor="middle" x="332.4469" y="-302.3" font-family="Times,serif" font-size="14.00" fill="#000000">22</text>
</g>
<!-- 0x559011efa2c0&#45;&gt;0x559011efa2e0 -->
<g id="edge10" class="edge">
<title>0x559011efa2c0&#45;&gt;0x559011efa2e0</title>
<path fill="none" stroke="#000000" stroke-width="4" d="M284.9848,-362.0209C293.0402,-352.5128 303.4102,-340.2728 312.4013,-329.6604"/>
<polygon fill="#000000" stroke="#000000" stroke-width="4" points="315.1532,-331.8268 318.9469,-321.9345 309.8123,-327.3019 315.1532,-331.8268"/>
</g>
<!-- 5 -->
<g id="node12" class="node">
<title>5</title>
<ellipse fill="#ff0000" stroke="#000000" cx="292.4469" cy="-234" rx="34.394" ry="18"/>
<text text-anchor="middle" x="292.4469" y="-230.3" font-family="Times,serif" font-size="14.00" fill="#000000">NULL</text>
</g>
<!-- 0x559011efa2e0&#45;&gt;5 -->
<g id="edge11" class="edge">
<title>0x559011efa2e0&#45;&gt;5</title>
<path fill="none" stroke="#000000" d="M322.9675,-288.937C318.2055,-280.3654 312.331,-269.7914 307.0117,-260.2165"/>
<polygon fill="#000000" stroke="#000000" points="310.0522,-258.4825 302.1362,-251.4407 303.9331,-261.882 310.0522,-258.4825"/>
</g>
<!-- 0x559011efa300 -->
<g id="node13" class="node">
<title>0x559011efa300</title>
<ellipse fill="#c0c0c0" stroke="#000000" cx="371.4469" cy="-234" rx="27" ry="18"/>
<text text-anchor="middle" x="371.4469" y="-230.3" font-family="Times,serif" font-size="14.00" fill="#000000">27</text>
</g>
<!-- 0x559011efa2e0&#45;&gt;0x559011efa300 -->
<g id="edge12" class="edge">
<title>0x559011efa2e0&#45;&gt;0x559011efa300</title>
<path fill="none" stroke="#000000" stroke-width="4" d="M341.6894,-288.937C346.4007,-280.2393 352.2286,-269.4799 357.4748,-259.7948"/>
<polygon fill="#000000" stroke="#000000" stroke-width="4" points="360.5855,-261.4005 362.2708,-250.9405 354.4304,-258.0664 360.5855,-261.4005"/>
</g>
<!-- 0x559011efa360 -->
<g id="node14" class="node">
<title>0x559011efa360</title>
<ellipse fill="#ff0000" stroke="#000000" cx="327.4469" cy="-162" rx="27" ry="18"/>
<text text-anchor="middle" x="327.4469" y="-158.3" font-family="Times,serif" font-size="14.00" fill="#000000">26</text>
</g>
<!-- 0x559011efa300&#45;&gt;0x559011efa360 -->
<g id="edge13" class="edge">
<title>0x559011efa300&#45;&gt;0x559011efa360</title>
<path fill="none" stroke="#000000" stroke-width="4" d="M361.2419,-217.3008C355.8773,-208.5224 349.1843,-197.5703 343.1732,-187.7339"/>
<polygon fill="#000000" stroke="#000000" stroke-width="4" points="346.1033,-185.8164 337.9022,-179.1086 340.1303,-189.4666 346.1033,-185.8164"/>
</g>
<!-- 0x559011efa320 -->
<g id="node19" class="node">
<title>0x559011efa320</title>
<ellipse fill="#c0c0c0" stroke="#000000" cx="414.4469" cy="-162" rx="27" ry="18"/>
<text text-anchor="middle" x="414.4469" y="-158.3" font-family="Times,serif" font-size="14.00" fill="#000000">31</text>
</g>
<!-- 0x559011efa300&#45;&gt;0x559011efa320 -->
<g id="edge18" class="edge">
<title>0x559011efa300&#45;&gt;0x559011efa320</title>
<path fill="none" stroke="#000000" stroke-width="4" d="M381.6373,-216.937C386.8318,-208.2393 393.2575,-197.4799 399.0417,-187.7948"/>
<polygon fill="#000000" stroke="#000000" stroke-width="4" points="402.2071,-189.3206 404.3297,-178.9405 396.1973,-185.7314 402.2071,-189.3206"/>
</g>
<!-- 0x559011efa380 -->
<g id="node15" class="node">
<title>0x559011efa380</title>
<ellipse fill="#ff0000" stroke="#000000" cx="248.4469" cy="-90" rx="27" ry="18"/>
<text text-anchor="middle" x="248.4469" y="-86.3" font-family="Times,serif" font-size="14.00" fill="#000000">25</text>
</g>
<!-- 0x559011efa360&#45;&gt;0x559011efa380 -->
<g id="edge14" class="edge">
<title>0x559011efa360&#45;&gt;0x559011efa380</title>
<path fill="none" stroke="#000000" stroke-width="4" d="M311.4601,-147.4297C300.1097,-137.0851 284.6867,-123.0286 271.9402,-111.4116"/>
<polygon fill="#000000" stroke="#000000" stroke-width="4" points="274.1586,-108.6978 264.41,-104.5486 269.4433,-113.8715 274.1586,-108.6978"/>
</g>
<!-- 8 -->
<g id="node18" class="node">
<title>8</title>
<ellipse fill="#c0c0c0" stroke="#000000" cx="327.4469" cy="-90" rx="34.394" ry="18"/>
<text text-anchor="middle" x="327.4469" y="-86.3" font-family="Times,serif" font-size="14.00" fill="#000000">NULL</text>
</g>
<!-- 0x559011efa360&#45;&gt;8 -->
<g id="edge17" class="edge">
<title>0x559011efa360&#45;&gt;8</title>
<path fill="none" stroke="#000000" d="M327.4469,-143.8314C327.4469,-136.131 327.4469,-126.9743 327.4469,-118.4166"/>
<polygon fill="#000000" stroke="#000000" points="330.947,-118.4132 327.4469,-108.4133 323.947,-118.4133 330.947,-118.4132"/>
</g>
<!-- 6 -->
<g id="node16" class="node">
<title>6</title>
<ellipse fill="#ff0000" stroke="#000000" cx="205.4469" cy="-18" rx="34.394" ry="18"/>
<text text-anchor="middle" x="205.4469" y="-14.3" font-family="Times,serif" font-size="14.00" fill="#000000">NULL</text>
</g>
<!-- 0x559011efa380&#45;&gt;6 -->
<g id="edge15" class="edge">
<title>0x559011efa380&#45;&gt;6</title>
<path fill="none" stroke="#000000" d="M238.2565,-72.937C233.1374,-64.3654 226.8223,-53.7914 221.104,-44.2165"/>
<polygon fill="#000000" stroke="#000000" points="223.9953,-42.2315 215.8629,-35.4407 217.9855,-45.8207 223.9953,-42.2315"/>
</g>
<!-- 7 -->
<g id="node17" class="node">
<title>7</title>
<ellipse fill="#c0c0c0" stroke="#000000" cx="292.4469" cy="-18" rx="34.394" ry="18"/>
<text text-anchor="middle" x="292.4469" y="-14.3" font-family="Times,serif" font-size="14.00" fill="#000000">NULL</text>
</g>
<!-- 0x559011efa380&#45;&gt;7 -->
<g id="edge16" class="edge">
<title>0x559011efa380&#45;&gt;7</title>
<path fill="none" stroke="#000000" d="M258.652,-73.3008C263.9388,-64.6496 270.5158,-53.8873 276.4589,-44.1623"/>
<polygon fill="#000000" stroke="#000000" points="279.4553,-45.9711 281.6833,-35.6132 273.4823,-42.3209 279.4553,-45.9711"/>
</g>
<!-- 9 -->
<g id="node20" class="node">
<title>9</title>
<ellipse fill="#ff0000" stroke="#000000" cx="414.4469" cy="-90" rx="34.394" ry="18"/>
<text text-anchor="middle" x="414.4469" y="-86.3" font-family="Times,serif" font-size="14.00" fill="#000000">NULL</text>
</g>
<!-- 0x559011efa320&#45;&gt;9 -->
<g id="edge19" class="edge">
<title>0x559011efa320&#45;&gt;9</title>
<path fill="none" stroke="#000000" d="M414.4469,-143.8314C414.4469,-136.131 414.4469,-126.9743 414.4469,-118.4166"/>
<polygon fill="#000000" stroke="#000000" points="417.947,-118.4132 414.4469,-108.4133 410.947,-118.4133 417.947,-118.4132"/>
</g>
<!-- 10 -->
<g id="node21" class="node">
<title>10</title>
<ellipse fill="#c0c0c0" stroke="#000000" cx="501.4469" cy="-90" rx="34.394" ry="18"/>
<text text-anchor="middle" x="501.4469" y="-86.3" font-family="Times,serif" font-size="14.00" fill="#000000">NULL</text>
</g>
<!-- 0x559011efa320&#45;&gt;10 -->
<g id="edge20" class="edge">
<title>0x559011efa320&#45;&gt;10</title>
<path fill="none" stroke="#000000" d="M431.6353,-147.7751C443.9713,-137.566 460.8294,-123.6145 474.8889,-111.979"/>
<polygon fill="#000000" stroke="#000000" points="477.3158,-114.5138 482.7883,-105.4417 472.8528,-109.121 477.3158,-114.5138"/>
</g>
</g>
</svg>
